@startuml 收款全流程交易域状态机-OPS(缺部分退款逻辑)

hide empty description
scale 516 width

' 按鹏丽产品文档中定义的状态

[*] --> 待关联订单
[*] --> 待风控决策

待关联订单 -[#Blue]-> 待风控决策 : <font color=Blue>商户 关联订单

待风控决策 -[#Red]-> 已入账 : <font color=Red>PASS（非申报类渠道）
待风控决策 -[#Red]-> 待机构审核 : <font color=Red>PASS（申报类渠道）
待风控决策 -[#Red]-> 待关联订单 : <font color=Red>REJECT
待风控决策 -[#Red]-> 待风控决策 : <font color=Red>REJECT
待风控决策 -[#Red]-> 审核未通过 : <font color=Red>REJECT
待风控决策 -[#Red]-> 待退款 : <font color=Red>REFUND

待机构审核 --> 已入账
待机构审核 --> 退款中
待机构审核 --> 挂起

挂起 -[#Blue]-> 待机构审核 : <font color=Blue>运营 重试
挂起 -[#Blue]-> 待风控决策 : <font color=Blue>运营 转风控

审核未通过 -[#Blue]-> 待风控决策 : <font color=Blue>商户 补充交易材料

待退款 -[#Orange]-> 退款中 : <font color=Blue>运营 退款\n<font color=Orange>不同渠道的处理方式\n<font color=Orange>待建设

退款中 --> 退款失败
退款中 --> 已退款

退款失败 -[#Orange]-> 退款中 : <font color=Orange>重新发起退款\n<font color=Orange>待建设

已入账 --> [*]
已退款 --> [*]

待关联订单 : 

待风控决策 : MPS 审核中

待机构审核 : MPS 审核中
挂起 : MPS 审核中
待退款 : MPS 审核中

审核未通过 : MPS 待补充交易材料

@enduml


' ================================================
' ===========为了消去同一OPS状态内的连接线============
' ================================================

' @startuml 收款全流程交易域状态机-OPS TEMP

' hide empty description
' scale 516 width

' [*] --> 待关联订单
' [*] --> 待风控决策

' 待关联订单 --> 待风控决策

' 待风控决策 --> 已入账 : <font color=Red>PASS（非申报类渠道）
' 待风控决策 -[#Red]-> 待机构审核 : <font color=Red>PASS（申报类渠道）
' 待风控决策 --> 待关联订单 : <font color=Red>REJECT
' 待风控决策 -[#Red]-> 待风控决策 : <font color=Red>REJECT
' 待风控决策 --> 审核未通过 : <font color=Red>REJECT
' 待风控决策 -[#Red]-> 待退款 : <font color=Red>REFUND

' 待机构审核 --> 已入账
' 待机构审核 --> 退款中
' 待机构审核 -[#Red]-> 挂起

' 挂起 -[#Red]-> 待机构审核
' 挂起 -[#Red]-> 待风控决策 : <font color=Blue>手工转风控（？没懂）

' 审核未通过 --> 待风控决策

' 待退款 -[#Orange]-> 退款中 : <font color=Orange>不同渠道的处理方式\n<font color=Orange>待建设

' 退款中 --> 退款失败
' 退款中 --> 已退款

' 退款失败 -[#Orange]-> 退款中 : <font color=Orange>重新发起退款\n<font color=Orange>待建设

' 已入账 --> [*]
' 已退款 --> [*]

' 待风控决策 : MPS 审核中
' 待机构审核 : MPS 审核中
' 挂起 : MPS 审核中
' 待退款 : MPS 审核中

' 审核未通过 : MPS 待补充交易材料

' @enduml

' ================================================
' ================消去后的MPS状态机=================
' ================================================

' @startuml 收款全流程交易域状态机-MPS(缺部分退款逻辑)

' hide empty description
' scale 516 width

' [*] --> 待关联订单
' [*] --> 审核中

' 待关联订单 --> 审核中

' 审核中 -[#Red]-> 已入账 : <font color=Red>PASS & ORG_PASS
' 审核中 -[#Red]-> 待关联订单 : <font color=Red>REJECT
' 审核中 -[#Red]-> 待补充交易材料 : <font color=Red>REJECT
' 审核中 -[#Red]-> 退款中 : <font color=Red>REFUND\n<font color=Orange>不同渠道的处理方式\n<font color=Orange>待建设

' 待补充交易材料 --> 审核中

' 退款中 --> 退款失败
' 退款中 --> 已退款

' 退款失败 -[#Orange]-> 退款中 : <font color=Orange>重新发起退款\n<font color=Orange>待建设

' 已入账 --> [*]
' 已退款 --> [*]

' @enduml
